# xmcd
#
# Track frame offsets:
#	150
#	13086
#	26804
#	39982
#	57273
#	68782
#	84017
#	96443
#	112181
#	124682
#	136291
#	150657
#	162967
#	175570
#	185858
#	200154
#	213660
#	228263
#	242629
#	257470
#
# Disc length: 3551 seconds
#
# Revision: 1
# Processed by: cddbd v1.5.1PL0 Copyright (c) Steve Scherf et al.
# Submitted via: audiograbber 1.81.02
#
DISCID=140ddd14
DTITLE=Percy Sledge - Percy Sledge
DYEAR=1999
DGENRE=Compilation
TTITLE0=When A Man Loves A Woman
TTITLE1=My Special Prayer
TTITLE2=Take Time To Know Her
TTITLE3=Try A Little Tenderness
TTITLE4=(Sitting On) The Dock Of The Bay
TTITLE5=Out Of Left Field
TTITLE6=It Tears Me Up
TTITLE7=Just Out Of Reach
TTITLE8=Cover Me
TTITLE9=Tell It Like It Is
TTITLE10=I'll Be Your Everything
TTITLE11=Sudden Stop
TTITLE12=Behind Closed Doors
TTITLE13=Blue Water
TTITLE14=Hard To Be Friends
TTITLE15=I Believe In You
TTITLE16=If This Is The Last Time
TTITLE17=Love Away People
TTITLE18=Warm And Tender Love
TTITLE19=Walkin' In The Sun
EXTD=
EXTT0=
EXTT1=
EXTT2=
EXTT3=
EXTT4=
EXTT5=
EXTT6=
EXTT7=
EXTT8=
EXTT9=
EXTT10=
EXTT11=
EXTT12=
EXTT13=
EXTT14=
EXTT15=
EXTT16=
EXTT17=
EXTT18=
EXTT19=
PLAYORDER=
